<?xml version="1.0" standalone="no"?>
<!DOCTYPE svg PUBLIC "-//W3C//DTD SVG 20010904//EN"
 "http://www.w3.org/TR/2001/REC-SVG-20010904/DTD/svg10.dtd">
<svg version="1.0" xmlns="http://www.w3.org/2000/svg"
 width="1200.000000pt" height="1200.000000pt" viewBox="0 0 1200.000000 1200.000000"
 preserveAspectRatio="xMidYMid meet">
<metadata>
Created by potrace 1.11, written by Peter Selinger 2001-2013
</metadata>
<g transform="translate(0.000000,1200.000000) scale(0.100000,-0.100000)"
fill="#000000" stroke="none">
<path d="M6370 11964 c-19 -50 -150 -378 -159 -399 -5 -11 -53 -132 -107 -270
-96 -247 -110 -283 -139 -349 -8 -19 -15 -38 -15 -43 0 -4 -18 -51 -39 -103
-37 -88 -205 -513 -253 -640 -11 -30 -27 -68 -34 -85 -7 -16 -52 -129 -99
-250 -47 -121 -90 -229 -95 -240 -5 -11 -55 -138 -112 -281 l-103 -261 -100
73 c-55 41 -109 80 -120 88 -11 8 -171 126 -355 261 -184 135 -354 259 -378
275 -23 16 -48 34 -55 40 -6 6 -145 108 -307 226 -162 118 -326 238 -365 267
-38 29 -95 70 -126 92 -31 22 -206 150 -389 283 -182 134 -333 242 -336 240
-2 -3 3 -29 12 -58 9 -30 17 -61 19 -69 2 -9 8 -36 15 -61 7 -25 14 -52 16
-60 2 -8 25 -100 53 -205 27 -104 82 -314 121 -465 39 -151 82 -315 95 -365
13 -49 45 -171 70 -270 26 -99 67 -256 91 -350 25 -93 47 -177 49 -185 11 -45
160 -620 181 -700 14 -52 36 -135 49 -185 13 -49 26 -98 30 -107 6 -16 -1 -18
-81 -19 -49 0 -224 -2 -389 -4 -165 -2 -516 -6 -780 -9 -1437 -17 -1975 -24
-1990 -25 -5 -1 31 -30 80 -66 50 -36 101 -74 115 -85 14 -10 89 -65 167 -122
309 -226 847 -619 868 -635 6 -5 44 -33 85 -63 41 -30 77 -57 80 -60 3 -3 13
-9 22 -15 9 -5 192 -138 405 -294 213 -157 389 -285 390 -286 1 0 -13 -41 -31
-90 -28 -73 -78 -258 -101 -372 -4 -15 -80 -71 -257 -188 -705 -465 -963 -635
-968 -637 -5 -3 -63 -41 -450 -297 -80 -53 -149 -98 -155 -100 -5 -2 -12 -7
-15 -10 -3 -4 -104 -71 -225 -150 -121 -79 -226 -149 -233 -156 -15 -13 -70
-13 1063 -1 297 4 722 9 945 11 l405 5 22 -51 c16 -35 20 -56 14 -72 -8 -20
-77 -167 -156 -332 -33 -70 -243 -516 -336 -714 -27 -57 -49 -107 -49 -112 0
-4 21 1 47 12 66 28 81 34 138 57 28 11 102 41 165 67 63 26 219 89 345 140
127 51 247 100 268 109 20 9 37 14 37 12 0 -8 -52 -143 -70 -183 -11 -24 -20
-47 -20 -53 0 -6 -4 -18 -10 -28 -5 -9 -28 -64 -50 -122 -23 -58 -48 -119 -55
-137 -8 -17 -15 -34 -15 -37 0 -5 -162 -419 -180 -461 -5 -11 -36 -90 -70
-175 -33 -85 -65 -164 -70 -175 -4 -11 -37 -92 -71 -180 -34 -88 -98 -250
-142 -360 -108 -273 -127 -326 -113 -317 7 4 133 90 279 192 147 102 390 269
540 373 150 103 281 194 292 201 11 8 94 66 185 128 209 144 256 175 360 249
47 33 110 76 140 96 30 20 57 39 60 42 3 3 13 11 22 16 18 10 139 93 294 201
51 35 95 64 98 64 3 0 4 -12 2 -27 -3 -16 -8 -57 -11 -93 -3 -36 -8 -76 -10
-90 -2 -14 -7 -59 -10 -100 -4 -41 -8 -82 -10 -90 -1 -8 -6 -46 -9 -85 -4 -38
-9 -81 -11 -95 -2 -14 -7 -52 -10 -85 -8 -83 -15 -152 -21 -205 -2 -25 -6 -61
-8 -81 -2 -20 -7 -65 -11 -100 -3 -35 -8 -71 -10 -79 -2 -8 -6 -51 -10 -95 -3
-44 -8 -91 -10 -105 -2 -14 -7 -54 -10 -90 -4 -36 -8 -77 -11 -92 -2 -16 -2
-28 0 -28 3 0 24 26 49 57 24 32 138 180 253 329 115 149 219 284 231 300 222
290 317 410 323 412 5 2 14 -16 20 -40 6 -24 20 -74 30 -113 26 -92 80 -295
85 -319 3 -10 9 -33 15 -51 6 -18 12 -41 14 -51 3 -10 48 -179 101 -374 53
-195 98 -362 100 -370 2 -8 12 -49 24 -90 152 -562 184 -679 190 -705 4 -16
10 -25 13 -20 6 9 341 853 393 990 13 33 80 204 150 380 69 176 165 420 213
542 48 123 90 223 93 223 6 0 148 -138 607 -587 63 -62 117 -113 121 -113 3 0
6 19 7 43 0 23 4 94 8 157 4 63 9 147 12 185 4 74 11 177 20 310 10 150 13
200 19 315 4 63 10 119 15 123 4 5 34 -11 66 -35 33 -25 154 -114 269 -198
116 -85 255 -187 310 -227 55 -41 109 -81 120 -89 11 -8 68 -49 126 -92 58
-42 152 -111 209 -152 56 -41 164 -120 239 -175 75 -56 224 -165 331 -243 107
-78 232 -169 278 -203 46 -34 85 -60 87 -58 1 2 -24 103 -57 224 -33 121 -68
254 -79 295 -11 41 -29 108 -40 148 -11 40 -22 81 -24 90 -2 9 -40 152 -85
317 -115 423 -167 617 -173 640 -3 11 -26 97 -51 190 -26 94 -58 211 -71 260
-13 50 -58 216 -100 370 -42 154 -78 287 -80 295 -16 68 -57 219 -65 237 -5
12 -6 24 -2 27 4 2 244 7 532 11 289 3 680 8 870 10 190 3 584 7 875 11 572 6
962 12 984 13 14 1 -523 381 -539 381 -5 0 -10 4 -12 8 -1 4 -100 75 -218 157
-118 82 -294 204 -391 271 -97 67 -198 137 -225 156 -27 19 -139 96 -249 173
-110 76 -255 177 -322 224 -67 47 -190 133 -273 190 -83 58 -153 107 -155 111
-2 3 9 46 24 95 l27 88 102 71 c97 68 385 267 668 461 72 50 199 137 282 195
84 58 239 164 345 237 105 73 197 136 202 140 6 5 21 16 35 25 24 16 632 435
833 575 55 37 101 71 103 74 2 3 -117 5 -264 3 -1116 -12 -2193 -25 -2441 -28
l-153 -2 -52 37 c-63 45 -134 81 -206 104 -30 10 -56 19 -58 20 -2 2 13 43 32
91 60 155 288 747 311 809 13 33 107 278 210 545 103 267 197 512 210 545 12
33 64 168 115 300 51 132 101 260 110 285 53 142 132 348 141 368 11 28 17 31
-111 -58 -52 -37 -153 -106 -225 -155 -71 -49 -134 -93 -140 -97 -5 -5 -60
-43 -122 -86 -62 -42 -203 -140 -315 -217 -111 -77 -207 -142 -212 -144 -6 -2
-15 -8 -21 -13 -28 -23 -114 -84 -250 -177 -82 -56 -217 -149 -300 -206 -82
-57 -199 -138 -260 -179 -60 -42 -146 -100 -189 -131 -44 -30 -81 -53 -83 -52
-1 2 6 68 16 148 11 79 23 171 26 204 4 33 8 67 10 75 1 8 6 44 10 80 7 64 8
78 19 155 3 22 8 58 10 80 3 22 10 76 15 120 6 44 13 104 16 134 4 30 8 61 10
70 1 9 6 43 9 76 4 33 9 74 12 90 2 17 6 53 9 80 3 28 12 102 21 165 9 63 17
131 19 150 6 73 17 155 22 165 3 6 -11 -8 -31 -30 -19 -22 -35 -43 -36 -47 0
-4 -6 -13 -13 -20 -12 -12 -75 -94 -302 -393 -55 -71 -105 -136 -112 -143 -7
-7 -13 -17 -13 -20 0 -4 -10 -18 -22 -32 -13 -14 -52 -63 -88 -110 -123 -163
-270 -355 -283 -370 -6 -8 -29 -39 -50 -67 -21 -29 -42 -53 -47 -53 -4 0 -11
17 -15 38 -5 20 -9 42 -11 47 -2 6 -53 195 -113 420 -61 226 -115 426 -121
445 -9 29 -182 669 -195 720 -2 8 -13 49 -24 90 -11 41 -32 120 -46 175 -15
55 -28 102 -31 104 -2 2 -8 -9 -14 -25z"/>
</g>
</svg>
